<svg viewBox="0 0 325 325" fill="none" xmlns="http://www.w3.org/2000/svg">
    <!-- The ink glyph flips to canvas cream in dark browser chrome, so the tab icon never disappears. -->
    <style>
        @media (prefers-color-scheme: dark) {
            path {
                fill: #f7f5f0;
            }
        }
    </style>
    <path d="M304 286.615V289.731C293.635 293.885 280.161 297 269.796 297C242.847 297 217.971 282.461 217.971 241.961V212.885H216.934C201.387 253.385 162 297 100.847 297C55.2409 297 20 274.154 20 230.538C20 128.769 183.766 127.731 183.766 127.731L184.803 132.923C125.723 145.385 70.7883 171.346 70.7883 223.269C70.7883 254.423 92.5547 275.192 126.759 275.192C180.657 275.192 219.007 224.308 221.08 163.038C222.117 147.462 222.117 132.923 222.117 122.538C222.117 62.3077 191.022 37.3846 147.489 37.3846C111.212 37.3846 77.0073 57.1154 57.3139 87.2308L53.1679 52.9615C84.2628 41.5385 123.65 27 167.182 27C225.226 27 269.796 51.9231 269.796 123.577C269.796 155.769 268.759 190.038 268.759 233.654C268.759 275.192 284.307 285.577 304 286.615Z" fill="#1E1D1D"/>
</svg>
